# xmcd
#
# Track frame offsets:
#	150
#	14678
#	36325
#	57508
#	131235
#	198043
#	220580
#	264133
#	281455
#
# Disc length: 4442 seconds
#
# Revision: 0
# Processed by: cddbd v1.5.1PL0 Copyright (c) Steve Scherf et al.
# Submitted via: dBpowerAMP V4.0
#
DISCID=81115809
DTITLE=VAN MORRISON - A night in San Francisco CD2
DYEAR=1900
DGENRE=Blues
TTITLE0=Jumpin with symphony Sid
TTITLE1=It fills you up
TTITLE2=I'll take care of you/It's a man's, man's, man's world
TTITLE3=Lonely Avenue/4 O'clock in the morning
TTITLE4=So quiet in here/That's where it's at
TTITLE5=In the garden/You send me/Allegheny
TTITLE6=Have I told you lately that I love you?
TTITLE7=Shakin' all over/Gloria
TTITLE8=Extra
EXTD=
EXTT0=
EXTT1=
EXTT2=
EXTT3=
EXTT4=
EXTT5=
EXTT6=
EXTT7=
EXTT8=
PLAYORDER=
